PathFileType	4	(X/Y/Z)	Patient4_TMGait_0pt3_01_left_01.trc.trc
DataRate	CameraRate	NumFrames	NumMarkers	Units	OrigDataRate	OrigDataStartFrame	OrigNumFrames
53.231939163498	53.231939163498	4	33	mm	53.231939163498	1	       141
Frame#	Time	Sacral			L.Shoulder			Chest			R.Shoulder			Neck			R.ASIS			L.ASIS			R.Thigh.Superior			R.Thigh.Lateral			R.Thigh.Inferior			R.Patella			L.Thigh.Superior			L.Thigh.Lateral			L.Thigh.Inferior			L.Patella			L.Shank.Superior			L.Shank.Lateral			L.Shank.Inferior			R.Shank.Superior			R.Shank.Lateral			R.Shank.Inferior			R.Heel			R.Midfoot.Superior			R.Midfoot.Lateral			R.Toe			L.Heel			L.Midfoot.Lateral			L.Midfoot.Superior			L.Toe			L.Elbow			L.Wrist			R.Elbow			R.Wrist			
		X1	Y1	Z1	X2	Y2	Z2	X3	Y3	Z3	X4	Y4	Z4	X5	Y5	Z5	X6	Y6	Z6	X7	Y7	Z7	X8	Y8	Z8	X9	Y9	Z9	X10	Y10	Z10	X11	Y11	Z11	X12	Y12	Z12	X13	Y13	Z13	X14	Y14	Z14	X15	Y15	Z15	X16	Y16	Z16	X17	Y17	Z17	X18	Y18	Z18	X19	Y19	Z19	X20	Y20	Z20	X21	Y21	Z21	X22	Y22	Z22	X23	Y23	Z23	X24	Y24	Z24	X25	Y25	Z25	X26	Y26	Z26	X27	Y27	Z27	X28	Y28	Z28	X29	Y29	Z29	X30	Y30	Z30	X31	Y31	Z31	X32	Y32	Z32	X33	Y33	Z33	

1	1.100000000000	812.405290290614	998.367542617292	546.041420642214	990.202307162466	1438.278681900537	384.683445514060	1076.696314870943	1370.281994198818	554.453544537826	973.087332048536	1435.289071504313	720.289662805615	957.571903930476	1496.209958216947	542.795838721880	1037.688372005479	947.236510250960	680.895851982910	1039.632693460328	962.573737287973	406.433071452119	1081.190839376180	745.444148458597	649.186452343431	995.822074699268	633.862950525615	702.347347269156	1075.336853170549	583.241352070416	625.240234505697	1074.781063718158	496.071071492124	629.034951059582	1095.298815440496	749.451707427937	428.646751802488	1025.075064583907	630.886151948630	351.071069901310	1113.907753123066	551.358502709864	412.341774446390	1110.288741126513	464.907299226661	405.666660798263	1040.987262040753	406.194833371878	395.028688429733	900.865805845040	367.956343236397	340.128254860364	882.899813375360	237.984861357572	392.701008479687	1049.087220661931	406.999718515729	632.680845667902	977.945628774427	300.494053497170	688.341493292066	1024.014004360598	207.711273802693	625.029127244478	893.711331139067	43.420972759876	586.907993775838	1063.466371080743	97.254793996665	630.097283137811	974.153103908778	36.577841612715	664.159882037252	1182.640307393874	45.331642174387	662.923689082588	688.970793334574	178.047991860567	423.249446280711	748.566919319242	134.019752076478	343.450321962674	853.551866786737	138.375968625175	368.831058740393	930.034997194786	30.032468260872	339.364180934456	1033.158959554200	1087.922980225935	264.963841509726	1246.035027762690	933.627394649691	273.876515946796	918.999269568646	1093.531281346041	846.754223461011	1058.578123751136	875.960659432283	890.241254929122	
2	1.118785714286	810.544461054579	998.053265179793	550.503064109673	987.971441054203	1437.506315054764	386.878400215976	1076.119746535801	1369.574927276726	555.784218744507	974.646493747536	1435.157968478880	722.616704907254	957.346264720480	1495.843532637285	545.127347485751	1036.842179834309	946.626809437160	683.126602532105	1036.804206166029	962.537900520523	408.464558958159	1080.071095197595	744.909311136213	651.018860784553	995.005357735414	633.174432915554	704.049075193532	1074.427152170513	582.703636098059	626.668980312759	1073.724962435985	494.998429309204	630.235456899192	1096.246249445278	752.888001666115	430.827006939920	1029.572697849746	633.370011461693	352.397938117532	1120.664192590913	555.993368712016	413.246165799531	1119.109913841395	468.949080782884	405.871161436030	1049.634928946414	409.449345911444	395.320182894269	908.445519845590	371.827070144924	342.458352141605	891.460460187584	241.133868768612	393.779824285467	1046.968918412183	406.114530140822	633.554013983291	974.899844062653	300.132283420663	689.197931003362	1019.711002670317	207.165742678952	625.271788548321	887.921968481314	43.443285517521	586.951100952603	1057.700488643354	97.207114499770	630.197261379300	968.343259410399	36.603054145135	664.229350925746	1176.827990349790	45.169997750969	662.996405473037	698.140646254788	180.209144261049	426.587722371137	756.597765775793	137.371219461230	345.362148574515	861.959650471382	141.574749614570	369.267377117626	937.906879564305	32.377092385849	336.987337605648	1025.711935506402	1085.643848507518	269.821601667442	1218.340779170251	913.344162203093	274.036068223047	927.620704706767	1093.709420936516	852.229212077838	1077.421356875688	884.743822275694	896.605351890213	
3	1.137571428571	808.564749644534	997.741257963631	554.941227476820	985.771623635198	1436.642731894683	389.046796724430	1075.565065998236	1368.784115253256	557.102041154080	976.244764367413	1435.008675293205	724.918063196884	957.153348889579	1495.422727836636	547.417420179298	1035.930361843808	945.938667448298	685.377977247303	1033.781517527559	962.421407242199	410.550782705805	1078.946038728417	744.357310086427	652.817065562729	994.210029740294	632.436681158572	705.716840679264	1073.552428124212	582.135805962649	628.069120147535	1072.713151773979	493.879423068963	631.405543093744	1096.952457414461	756.269037753868	432.900152964216	1033.694462297695	635.810454156767	353.696811345637	1127.059672591766	560.618907383337	414.045309502639	1127.615881733154	473.071591247578	405.980541601042	1058.216953666168	412.673164290559	395.481870937841	916.112026948581	375.001823865636	344.774121055844	900.819837702227	243.523401422014	394.695257662023	1044.851668393274	405.181688321178	634.397727202621	971.834904439514	299.754316455624	690.054511690993	1015.336539670924	206.591493765485	625.502864788815	882.004733130376	43.469561445880	586.990264141755	1051.804202651069	97.148791940512	630.288686964067	962.407976663304	36.627327218402	664.296499535405	1170.890278751424	44.991084772319	663.064651394293	708.575994228439	180.569113415651	429.946550821458	765.889487568072	139.358258402485	347.157748562807	871.584933202973	144.007256250679	369.441163315746	947.509062727122	34.629875538783	334.039317283876	1017.804128078202	1083.293574118043	274.565183027499	1189.593343150377	893.514284207423	274.260491555086	936.479471216427	1093.839915985852	857.552090925244	1096.731306317985	893.960439561947	902.719463179572	
4	1.156357142857	806.479398107200	997.455201111074	559.221574630000	983.664957542191	1435.689576710287	391.104806876409	1075.056310179975	1367.908177954064	558.342314108813	977.866090785981	1434.844061999326	727.102893020593	957.012759480384	1494.948198045128	549.572074725112	1034.944357105105	945.166265051741	687.573028789825	1030.573441901565	962.215194148886	412.633692600143	1077.806437574126	743.790421933668	654.502315757956	993.429620637235	631.656238057791	707.287297078423	1072.701430115597	581.542336863463	629.376315314264	1071.731572503650	492.735767154039	632.487699340910	1097.258562417465	759.467856994416	434.765866533901	1037.127093078042	638.122732180556	354.912181301657	1132.701336323308	565.090546802459	414.694854575378	1135.383760164321	477.204135706004	405.972407947558	1066.445771158727	415.776637133976	395.471748360439	923.745471247500	377.062779045295	346.964390874013	911.139281337026	244.775491532491	395.348618820570	1042.748346115586	404.213940065340	635.169655252315	968.792083503032	299.366116854949	690.885955178068	1010.955651367787	205.995717348740	625.709735041567	876.056988057466	43.498147175736	587.025161713593	1045.874323569451	97.077696948964	630.365224777082	956.446322697864	36.648448742375	664.358763798038	1164.927996864840	44.795976162821	663.125934702062	720.661370499772	178.350093480505	433.174586556856	776.895422093693	139.332441404252	348.707497651426	882.816396551497	145.292642129332	369.246114874604	959.475143791732	36.730787056528	330.450466972450	1009.366286688895	1080.961261071793	278.992925956619	1160.144375008806	875.005847035542	274.595551333501	945.459644306281	1093.911167628798	862.478384998421	1116.174750042235	903.601297094636	908.226762197244	
